<svg width="12" height="12" viewBox="0 0 12 12" fill="none" xmlns="http://www.w3.org/2000/svg">
<path d="M9.00002 0H3.00017C1.35036 0 0.000244141 1.35011 0.000244141 2.99993V9.00007C0.000244141 10.6494 1.35036 12 3.00017 12H9.00002C10.6498 12 12 10.6494 12 9.00007V2.99993C12 1.35011 10.6498 0 9.00002 0ZM10.9999 9.00007C10.9999 10.1025 10.1031 11 9.00002 11H3.00017C1.89755 11 1.00027 10.1025 1.00027 9.00007V2.99993C1.00027 1.89716 1.89755 1.00002 3.00017 1.00002H9.00002C10.1031 1.00002 10.9999 1.89716 10.9999 2.99993V9.00007Z" fill="#0079DE"/>
<path d="M9.25047 3.49996C9.66467 3.49996 10.0005 3.16419 10.0005 2.74998C10.0005 2.33578 9.66467 2 9.25047 2C8.83627 2 8.50049 2.33578 8.50049 2.74998C8.50049 3.16419 8.83627 3.49996 9.25047 3.49996Z" fill="#0079DE"/>
<path d="M5.99993 3C4.34276 3 3 4.34291 3 5.99993C3 7.65633 4.34276 9.00015 5.99993 9.00015C7.65662 9.00015 8.99985 7.65633 8.99985 5.99993C8.99985 4.34291 7.65662 3 5.99993 3ZM5.99993 8.00012C4.89549 8.00012 4.00002 7.10466 4.00002 5.99993C4.00002 4.8952 4.89549 4.00002 5.99993 4.00002C7.10436 4.00002 7.99983 4.8952 7.99983 5.99993C7.99983 7.10466 7.10436 8.00012 5.99993 8.00012Z" fill="#0079DE"/>
</svg>
