<svg width="118" height="54" viewBox="0 0 118 54" fill="none" xmlns="http://www.w3.org/2000/svg">
<path d="M6.5918 12.1479L10.5469 12.1348V10.8164H5.27344V24H0V5.54297H15.8203V17.4082H13.1836L18.457 24H11.8652L6.5918 17.4082V12.1479ZM22.4121 18.7266H27.6855V10.8164H22.4121V18.7266ZM17.1387 24V5.54297H32.959V24H17.1387ZM50.0977 5.54297V10.8164H39.5508V18.7266H44.8242V17.4082H42.1875V12.1348H50.0977V24H34.2773V5.54297H50.0977ZM56.6895 18.7266H61.9629L60.6445 17.4082H58.0078V12.1348H60.6445L61.9629 10.8164H56.6895V18.7266ZM51.416 24V5.54297H67.2363V12.7939L65.2588 14.7715L67.2363 16.749V24H51.416ZM73.8281 18.7266H79.1016V10.8164H73.8281V18.7266ZM68.5547 24V5.54297H84.375V24H68.5547ZM96.2402 10.8164V24H90.9668V10.8164H85.6934V5.54297H101.514V10.8164H96.2402Z" fill="black"/>
<path d="M10.5469 28.543H15.8203V40.4082H13.1836L18.457 47H11.8652L6.5918 40.4082V35.1479L10.5469 35.1348V28.543ZM5.27344 47H0V28.543H5.27344V47ZM22.4121 28.543V47H17.1387V28.543H22.4121ZM29.0039 36.4531V47H23.7305V28.543H29.0039L34.2773 33.8164V28.543H39.5508V47H34.2773V41.7266L29.0039 36.4531ZM56.6895 28.543V33.8164H46.1426V41.7266H51.416V40.4082H48.7793V35.1348H56.6895V47H40.8691V28.543H56.6895ZM63.2812 41.7266H68.5547V36.4531L65.918 33.8164H63.2812V41.7266ZM58.0078 47V28.543H68.5547L73.8281 33.8164V47H58.0078ZM80.4199 41.7266H85.6934V33.8164H80.4199V41.7266ZM75.1465 47V28.543H90.9668V47H75.1465ZM97.5586 33.8164V47H92.2852V28.543H116.016V47H110.742V33.8164H106.787V47H101.514V33.8164H97.5586Z" fill="black"/>
</svg>
