<svg width="12" height="12" viewBox="0 0 12 12" fill="none" xmlns="http://www.w3.org/2000/svg">
<g clip-path="url(#clip0_12_280)">
<path d="M12 2.27925C11.5538 2.475 11.0782 2.60475 10.5825 2.66775C11.0925 2.36325 11.4818 1.88475 11.6648 1.308C11.1892 1.5915 10.6642 1.79175 10.1047 1.9035C9.65325 1.42275 9.00975 1.125 8.30775 1.125C6.94575 1.125 5.84925 2.2305 5.84925 3.58575C5.84925 3.78075 5.86575 3.96825 5.90625 4.14675C3.861 4.047 2.05125 3.06675 0.8355 1.5735C0.62325 1.94175 0.49875 2.36325 0.49875 2.817C0.49875 3.669 0.9375 4.42425 1.5915 4.8615C1.19625 4.854 0.8085 4.73925 0.48 4.5585C0.48 4.566 0.48 4.57575 0.48 4.5855C0.48 5.781 1.33275 6.774 2.451 7.00275C2.25075 7.0575 2.0325 7.08375 1.806 7.08375C1.6485 7.08375 1.4895 7.07475 1.34025 7.04175C1.659 8.016 2.5635 8.73225 3.639 8.7555C2.802 9.41025 1.73925 9.80475 0.58875 9.80475C0.387 9.80475 0.1935 9.79575 0 9.771C1.08975 10.4738 2.38125 10.875 3.774 10.875C8.301 10.875 10.776 7.125 10.776 3.8745C10.776 3.76575 10.7723 3.66075 10.767 3.5565C11.2552 3.21 11.6655 2.77725 12 2.27925Z" fill="#03A9F4"/>
</g>
<defs>
<clipPath id="clip0_12_280">
<rect width="12" height="12" fill="white"/>
</clipPath>
</defs>
</svg>
